<?xml version="1.0" encoding="iso-8859-1"?>
<!-- Generator: Adobe Illustrator 27.0.0, SVG Export Plug-In . SVG Version: 6.00 Build 0)  -->
<svg version="1.1" baseProfile="basic" id="Layer_1"
	 xmlns="http://www.w3.org/2000/svg" xmlns:xlink="http://www.w3.org/1999/xlink" x="0px" y="0px" viewBox="0 0 50 50"
	 xml:space="preserve">
<g>
	<path style="fill:#FF64BD;" d="M45.312,20.384l-2.828-2.828l2.89-2.89c0.746-0.746,0.746-1.96,0-2.706l-5.78-5.779
		c-0.723-0.724-1.983-0.722-2.706,0l-2.89,2.89L31.17,6.242l2.89-2.89c1.117-1.117,2.602-1.732,4.181-1.732s3.064,0.615,4.181,1.732
		l5.779,5.779c2.306,2.306,2.306,6.057,0,8.362L45.312,20.384z"/>
</g>
<g>
	<polygon style="fill:#FFD217;" points="6.138,45.416 8.79,28.622 12.785,24.627 15.613,27.455 12.538,30.53 10.947,40.607 
		21.023,39.017 24.099,35.94 26.928,38.769 22.932,42.765 	"/>
</g>
<g>
	<polygon style="fill:#FFD217;" points="23.392,42.304 9.25,28.162 31.17,6.242 33.998,9.07 14.907,28.162 23.392,36.647 
		42.484,17.556 45.312,20.384 	"/>
</g>
<g>
	
		<rect x="23.867" y="14.187" transform="matrix(0.7071 0.7071 -0.7071 0.7071 25.7399 -10.7668)" style="fill:#FFD217;" width="4" height="23"/>
</g>
<g>
	
		<rect x="36.241" y="3.313" transform="matrix(-0.7071 0.7071 -0.7071 -0.7071 74.6953 -4.3137)" style="fill:#16D6FA;" width="4" height="20"/>
</g>
<g>
	<polygon style="fill:#AF87CE;" points="7.565,36.377 6.138,45.416 15.177,43.989 	"/>
</g>
<g>
	
		<rect x="30.584" y="5.656" transform="matrix(0.7071 -0.7071 0.7071 0.7071 4.1299 25.2829)" style="fill:#D8007C;" width="4" height="4"/>
</g>
<g>
	
		<rect x="41.898" y="16.97" transform="matrix(0.7071 -0.7071 0.7071 0.7071 -0.5563 36.5967)" style="fill:#D8007C;" width="4" height="4"/>
</g>
</svg>